<?xml version="1.0" standalone="no"?>
<!DOCTYPE svg PUBLIC "-//W3C//DTD SVG 20010904//EN"
 "http://www.w3.org/TR/2001/REC-SVG-20010904/DTD/svg10.dtd">
<svg version="1.0" xmlns="http://www.w3.org/2000/svg"
 width="191.000000pt" height="175.000000pt" viewBox="0 0 191.000000 175.000000"
 preserveAspectRatio="xMidYMid meet">
<metadata>
Created by potrace 1.15, written by Peter Selinger 2001-2017
</metadata>
<g transform="translate(0.000000,175.000000) scale(0.100000,-0.100000)"
fill="#000000" stroke="none">
<path d="M461 1285 c-435 -438 -462 -468 -459 -498 l3 -32 92 -3 93 -3 0 -362
c0 -269 3 -366 12 -375 9 -9 83 -12 270 -12 244 0 258 1 268 19 6 12 10 123
10 290 l0 271 200 0 200 0 0 -278 c0 -203 3 -281 12 -290 9 -9 83 -12 270 -12
244 0 258 1 268 19 6 13 10 149 10 375 l0 356 66 0 c58 0 65 -2 54 -15 -31
-38 27 -96 65 -65 15 13 21 61 8 74 -4 4 -6 21 -5 39 3 30 -27 63 -458 500
-388 393 -466 467 -489 467 -24 0 -102 -75 -490 -465z m889 -50 l395 -395 -52
0 c-87 0 -83 20 -83 -391 l0 -359 -180 0 -180 0 0 271 c0 167 -4 278 -10 290
-10 18 -24 19 -288 19 -203 0 -281 -3 -290 -12 -9 -9 -12 -87 -12 -290 l0
-278 -180 0 -180 0 0 353 c0 409 3 397 -83 397 l-52 0 395 395 c217 217 397
395 400 395 3 0 183 -178 400 -395z"/>
</g>
</svg>
